<?xml version="1.0" standalone="no"?>
<!DOCTYPE svg PUBLIC "-//W3C//DTD SVG 20010904//EN"
 "http://www.w3.org/TR/2001/REC-SVG-20010904/DTD/svg10.dtd">
<svg version="1.0" xmlns="http://www.w3.org/2000/svg"
 width="512.000000pt" height="512.000000pt" viewBox="0 0 512.000000 512.000000"
 preserveAspectRatio="xMidYMid meet">

<g transform="translate(0.000000,512.000000) scale(0.100000,-0.100000)"
fill="#000000" stroke="none">
<path d="M905 4375 c-14 -13 -25 -32 -25 -42 0 -10 -18 -173 -39 -363 l-39
-345 -281 -482 -281 -482 0 -784 c0 -733 1 -786 17 -806 27 -32 1643 -515
1693 -506 19 3 580 112 1245 241 1478 288 1614 314 1626 314 6 0 21 11 34 25
l25 24 0 669 c0 623 -1 671 -17 690 -11 13 -278 128 -678 292 -363 149 -663
275 -667 278 -3 4 -41 288 -84 632 -73 579 -80 627 -101 648 l-22 22 -1191 0
-1191 0 -24 -25z m2305 -142 c0 -5 29 -237 64 -518 35 -280 63 -511 62 -512
-1 -1 -116 70 -256 157 l-255 160 -398 0 -397 0 -423 351 c-232 194 -426 356
-431 360 -6 5 445 9 1012 9 562 0 1022 -3 1022 -7z m-1730 -463 c234 -194 428
-356 432 -359 10 -9 -67 -1660 -78 -1670 -7 -6 -1296 -396 -1416 -429 -17 -4
-18 32 -18 651 l0 656 279 478 279 478 31 280 c17 154 31 284 31 289 0 5 8 2
18 -6 9 -8 208 -174 442 -368z m1617 -608 l318 -199 653 -268 652 -268 0 -559
c0 -338 -4 -558 -9 -558 -5 0 -381 101 -834 225 l-825 225 -526 0 -526 0 5 43
c3 23 19 368 35 767 17 399 33 740 36 758 l5 32 349 0 348 0 319 -198z m636
-1754 c390 -106 703 -194 695 -197 -7 -2 -573 -113 -1258 -246 l-1245 -243
-722 217 c-398 119 -723 218 -723 221 0 3 325 103 723 222 l722 217 550 1 550
1 708 -193z"/>
<path d="M2265 4055 c-16 -15 -25 -36 -25 -55 0 -19 9 -40 25 -55 23 -24 28
-25 175 -25 147 0 152 1 175 25 16 15 25 36 25 55 0 19 -9 40 -25 55 -23 24
-28 25 -175 25 -147 0 -152 -1 -175 -25z"/>
<path d="M1225 3495 c-26 -25 -32 -63 -15 -96 13 -24 200 -119 235 -119 54 0
92 70 65 121 -13 24 -200 119 -235 119 -14 0 -37 -11 -50 -25z"/>
<path d="M1399 2670 c-96 -72 -180 -138 -186 -147 -21 -27 -15 -72 12 -98 45
-45 66 -36 256 105 96 72 180 138 187 147 20 27 14 72 -13 98 -45 45 -66 36
-256 -105z"/>
<path d="M585 2055 c-24 -23 -25 -28 -25 -175 0 -147 1 -152 25 -175 15 -16
36 -25 55 -25 19 0 40 9 55 25 24 23 25 28 25 175 0 147 -1 152 -25 175 -15
16 -36 25 -55 25 -19 0 -40 -9 -55 -25z"/>
<path d="M2505 2935 c-16 -15 -25 -36 -25 -55 0 -19 9 -40 25 -55 24 -25 26
-25 215 -25 189 0 191 0 215 25 16 15 25 36 25 55 0 19 -9 40 -25 55 -24 25
-26 25 -215 25 -189 0 -191 0 -215 -25z"/>
<path d="M2985 2215 c-16 -15 -25 -36 -25 -55 0 -19 9 -40 25 -55 23 -24 31
-25 135 -25 104 0 112 1 135 25 16 15 25 36 25 55 0 19 -9 40 -25 55 -23 24
-31 25 -135 25 -104 0 -112 -1 -135 -25z"/>
<path d="M4278 1950 c-99 -51 -118 -69 -118 -115 0 -33 42 -75 75 -75 35 0
222 95 235 119 27 52 -11 122 -67 120 -15 0 -72 -22 -125 -49z"/>
<path d="M2923 1428 c-33 -16 -48 -61 -33 -98 7 -17 20 -34 29 -39 9 -4 94
-27 189 -51 149 -37 176 -41 201 -30 71 29 60 129 -16 149 -138 36 -324 81
-335 80 -7 0 -23 -5 -35 -11z"/>
<path d="M2005 1155 c-227 -47 -245 -55 -245 -117 0 -33 39 -78 67 -78 29 0
426 79 451 90 45 20 52 90 12 130 -26 26 -40 25 -285 -25z"/>
</g>
</svg>
