<?xml version="1.0" standalone="no"?>
<!DOCTYPE svg PUBLIC "-//W3C//DTD SVG 20010904//EN"
 "http://www.w3.org/TR/2001/REC-SVG-20010904/DTD/svg10.dtd">
<svg version="1.0" xmlns="http://www.w3.org/2000/svg"
 width="512.000000pt" height="512.000000pt" viewBox="0 0 512.000000 512.000000"
 preserveAspectRatio="xMidYMid meet">

<g transform="translate(0.000000,512.000000) scale(0.100000,-0.100000)"
fill="#000000" stroke="none">
<path d="M3095 4760 c-45 -4 -112 -17 -150 -30 -62 -21 -79 -32 -150 -104 -66
-68 -96 -90 -175 -128 -219 -107 -503 -175 -767 -185 -120 -5 -154 -3 -215 13
-95 25 -256 24 -353 0 -166 -43 -327 -128 -411 -219 -69 -74 -84 -121 -77
-243 10 -173 -31 -254 -199 -394 -168 -140 -363 -335 -418 -417 -91 -136 -95
-154 -95 -423 1 -131 6 -277 13 -330 64 -475 191 -872 380 -1191 82 -137 149
-225 251 -332 214 -222 431 -327 678 -327 115 0 240 16 518 65 277 49 387 59
493 45 48 -6 224 -42 392 -80 514 -116 641 -136 744 -117 156 28 378 213 740
617 77 85 214 238 305 339 201 221 253 289 313 406 90 177 128 341 128 554 0
163 -19 285 -66 433 -69 215 -185 400 -316 504 -38 31 -83 75 -100 97 -76 103
-140 289 -218 632 -103 450 -143 523 -349 629 -168 86 -454 167 -643 181 -46
3 -103 7 -128 9 -25 2 -81 0 -125 -4z m410 -180 c231 -50 457 -141 531 -215
51 -52 79 -125 134 -360 99 -423 133 -532 208 -680 41 -80 62 -106 182 -225
123 -122 140 -144 187 -235 100 -193 143 -370 143 -586 0 -237 -48 -400 -178
-597 l-34 -53 -32 73 c-54 125 -112 195 -195 238 -59 30 -101 33 -215 15
l-108 -17 -137 28 c-76 15 -149 24 -162 21 -51 -13 -123 -73 -227 -189 -59
-66 -117 -140 -130 -164 -66 -130 -43 -289 59 -401 21 -22 42 -58 48 -80 5
-21 17 -67 26 -103 9 -36 25 -79 35 -95 34 -55 150 -103 262 -108 l58 -2 -78
-78 c-97 -99 -222 -200 -286 -232 -86 -43 -182 -35 -551 46 -104 23 -192 43
-193 45 -2 1 15 26 38 56 70 88 84 127 84 248 1 132 -21 191 -99 280 -30 33
-55 62 -55 64 0 2 -14 56 -30 121 -35 138 -57 173 -132 209 -53 25 -183 56
-235 56 -49 0 -102 -20 -138 -52 -57 -49 -141 -70 -276 -69 -112 1 -118 0
-180 -32 -76 -39 -100 -69 -107 -136 -4 -47 -8 -54 -72 -111 -88 -78 -120
-139 -120 -229 0 -118 33 -270 84 -392 11 -25 -15 -30 -154 -36 -147 -6 -224
8 -336 62 -405 195 -741 778 -852 1480 -45 281 -57 617 -26 711 40 117 154
246 434 485 145 124 172 154 214 236 40 81 57 157 56 263 -1 52 -1 103 -1 112
1 26 51 78 114 119 108 70 297 129 413 129 42 0 49 -5 133 -83 226 -211 464
-320 701 -320 288 0 499 151 591 424 26 78 32 115 37 216 6 137 6 139 80 160
73 20 360 11 487 -17z m-721 -207 c-29 -203 -147 -353 -316 -404 -59 -18 -87
-21 -186 -16 -163 7 -265 43 -421 151 l-75 51 113 7 c206 13 455 66 640 135
71 27 220 98 236 114 15 15 16 11 9 -38z m1192 -2558 c136 -29 157 -30 279 -9
88 15 96 15 130 -2 49 -23 98 -92 129 -179 48 -135 60 -108 -136 -326 l-173
-192 -82 -22 c-46 -12 -108 -38 -141 -58 -58 -36 -62 -37 -112 -27 -86 16
-103 29 -117 85 -38 145 -55 187 -99 237 -25 27 -50 62 -56 77 -14 37 -14 132
1 160 22 40 241 281 256 281 3 0 57 -11 121 -25z m-1415 -331 c56 -17 58 -19
88 -148 26 -109 55 -169 103 -216 72 -69 99 -199 59 -285 -10 -22 -45 -69 -78
-104 l-59 -65 -110 22 c-208 41 -294 39 -601 -14 -78 -13 -152 -24 -163 -24
-44 0 -106 179 -117 335 l-6 90 62 60 c34 33 66 61 71 63 18 6 53 74 64 125
10 46 15 53 45 63 19 6 52 8 79 3 107 -17 282 25 363 87 41 31 48 33 98 28 29
-3 75 -12 102 -20z"/>
<path d="M3538 4336 c-200 -55 -274 -290 -141 -445 109 -128 307 -128 416 0
90 105 89 258 -3 362 -66 74 -180 109 -272 83z m140 -164 c70 -46 68 -160 -5
-207 -58 -38 -147 -15 -179 46 -60 116 73 233 184 161z"/>
<path d="M1314 3839 c-16 -17 -18 -34 -16 -102 5 -134 -23 -217 -103 -307 -50
-56 -55 -84 -24 -124 44 -56 111 -24 189 89 87 127 122 383 59 446 -26 26 -80
25 -105 -2z"/>
<path d="M2340 3710 c-110 -20 -191 -117 -191 -228 -1 -77 24 -134 77 -181
147 -129 373 -39 391 156 14 154 -125 281 -277 253z m99 -167 c12 -10 24 -35
28 -55 5 -32 1 -41 -25 -68 -39 -38 -83 -40 -117 -5 -33 32 -34 89 -3 122 26
28 86 31 117 6z"/>
<path d="M3395 3588 c-91 -17 -193 -74 -271 -152 -112 -112 -164 -235 -164
-389 0 -249 150 -449 400 -533 70 -23 223 -24 296 -2 95 30 177 79 244 147
108 109 160 235 160 388 0 155 -52 277 -166 391 -133 133 -309 186 -499 150z
m291 -182 c84 -42 148 -107 191 -194 25 -51 28 -67 28 -162 0 -97 -2 -110 -32
-172 -81 -171 -260 -262 -442 -224 -133 28 -224 100 -285 226 -29 60 -31 73
-31 170 0 95 3 111 28 162 38 78 105 149 175 186 80 43 122 52 216 47 66 -3
91 -9 152 -39z"/>
<path d="M1645 3197 c-16 -8 -38 -24 -49 -35 -40 -45 -120 -66 -261 -67 -112
-1 -137 -5 -183 -24 -74 -33 -112 -79 -112 -137 0 -44 -3 -49 -80 -122 -108
-105 -125 -144 -116 -272 21 -312 168 -557 361 -600 41 -10 73 -8 176 8 l126
20 134 -29 c229 -49 237 -46 407 128 149 153 207 229 227 296 21 72 19 191 -4
260 -21 61 -74 145 -97 154 -23 8 -41 51 -69 163 -43 169 -65 196 -191 241
-76 26 -227 35 -269 16z m200 -152 c33 -9 67 -24 76 -33 9 -9 28 -66 43 -126
32 -128 44 -154 102 -216 24 -26 50 -63 59 -83 20 -49 19 -152 -3 -199 -20
-45 -254 -305 -286 -319 -18 -8 -59 -3 -174 20 l-152 31 -132 -19 c-128 -19
-134 -19 -173 -2 -106 47 -195 233 -211 441 l-7 87 91 89 c88 87 112 126 112
186 0 30 39 40 169 43 148 2 235 25 303 80 50 39 91 44 183 20z"/>
<path d="M1514 2761 c-58 -27 -111 -77 -146 -138 -18 -32 -36 -52 -43 -49 -7
2 -32 7 -56 11 -58 9 -99 -20 -99 -69 0 -46 32 -72 107 -86 110 -19 166 7 214
101 51 102 125 126 211 69 50 -33 105 -107 138 -187 25 -59 59 -80 103 -64 58
22 59 75 5 187 -41 84 -132 180 -207 217 -68 33 -163 37 -227 8z"/>
<path d="M4216 2685 c-85 -30 -149 -123 -149 -216 0 -146 135 -260 274 -230
141 30 219 163 178 302 -36 119 -181 188 -303 144z m139 -160 c62 -61 -3 -162
-86 -133 -58 20 -70 100 -21 138 34 27 77 25 107 -5z"/>
<path d="M2600 2431 c-162 -53 -218 -228 -112 -351 105 -124 289 -101 364 44
31 60 23 161 -18 218 -16 24 -49 53 -71 66 -46 25 -124 36 -163 23z m85 -153
c73 -33 25 -149 -52 -123 -69 25 -55 128 19 134 4 1 19 -4 33 -11z"/>
<path d="M510 1933 c-26 -33 -24 -46 25 -180 83 -225 262 -546 364 -653 45
-47 80 -52 116 -15 37 36 31 64 -33 151 -140 189 -250 400 -322 618 -27 82
-48 106 -94 106 -26 0 -40 -7 -56 -27z"/>
<path d="M4039 1600 c-21 -11 -52 -37 -71 -59 -26 -31 -39 -38 -58 -34 -37 7
-80 -30 -80 -68 0 -61 40 -89 124 -89 55 1 86 20 117 72 14 24 34 44 45 46 31
4 70 -33 99 -94 28 -59 57 -79 101 -68 29 8 54 40 54 72 0 38 -56 136 -100
176 -75 68 -159 84 -231 46z"/>
</g>
</svg>
