<?xml version="1.0" standalone="no"?>
<!DOCTYPE svg PUBLIC "-//W3C//DTD SVG 20010904//EN"
 "http://www.w3.org/TR/2001/REC-SVG-20010904/DTD/svg10.dtd">
<svg version="1.0" xmlns="http://www.w3.org/2000/svg"
 width="512.000000pt" height="512.000000pt" viewBox="0 0 512.000000 512.000000"
 preserveAspectRatio="xMidYMid meet">

<g transform="translate(0.000000,512.000000) scale(0.100000,-0.100000)"
fill="#000000" stroke="none">
<path d="M2413 4815 c-77 -21 -142 -56 -293 -160 -146 -100 -205 -133 -290
-160 -181 -58 -374 -149 -518 -244 -107 -70 -153 -95 -277 -146 -294 -121
-403 -220 -475 -435 -12 -36 -40 -150 -61 -254 -22 -104 -48 -219 -59 -255
-38 -121 -51 -237 -56 -506 -5 -204 -11 -294 -30 -416 -28 -181 -31 -334 -9
-420 44 -167 195 -455 345 -654 88 -117 178 -196 405 -354 94 -66 220 -160
280 -211 219 -184 315 -246 438 -285 107 -34 195 -33 377 6 311 65 359 67 615
19 363 -68 498 -25 816 260 63 56 161 139 219 183 196 151 378 345 494 525 66
102 167 315 216 457 23 66 68 189 101 272 66 172 98 287 104 377 3 33 12 155
21 270 20 258 15 456 -14 536 -46 130 -114 232 -277 415 -59 66 -147 176 -197
245 -348 481 -445 552 -1048 763 -140 49 -304 105 -363 123 -197 62 -355 78
-464 49z m312 -155 c84 -19 554 -180 735 -251 200 -78 328 -159 447 -280 91
-94 99 -104 231 -288 61 -84 164 -215 229 -290 151 -173 173 -202 216 -281 64
-116 80 -254 57 -480 -6 -52 -15 -167 -20 -255 -10 -179 -26 -245 -105 -450
-26 -66 -67 -178 -92 -250 -58 -170 -175 -406 -260 -525 -87 -121 -277 -313
-416 -419 -59 -45 -160 -129 -225 -187 -135 -121 -236 -193 -319 -224 -82 -32
-197 -30 -388 6 -228 42 -367 40 -585 -10 -212 -49 -314 -53 -408 -13 -86 35
-173 95 -331 227 -73 61 -179 143 -235 182 -233 165 -305 220 -369 285 -146
147 -351 502 -402 698 -21 84 -19 166 11 350 22 132 28 211 34 450 8 296 13
346 56 495 13 47 40 163 59 259 76 369 120 425 440 561 143 60 208 95 305 160
133 90 264 151 475 225 117 41 178 74 349 190 225 152 290 166 511 115z"/>
<path d="M2710 4433 c-31 -11 -50 -37 -50 -68 0 -18 8 -39 18 -47 9 -9 82 -32
162 -51 354 -86 594 -188 727 -309 60 -54 83 -59 118 -23 35 34 32 68 -11 115
-109 121 -400 252 -759 343 -175 44 -187 46 -205 40z"/>
<path d="M1170 3893 c-57 -28 -170 -151 -256 -279 -147 -217 -165 -263 -124
-304 22 -22 51 -26 80 -10 10 5 42 49 70 97 117 195 232 338 300 373 55 28 68
82 30 120 -24 24 -54 25 -100 3z"/>
<path d="M1994 3851 c-259 -70 -498 -290 -521 -478 -9 -80 12 -138 71 -199
115 -117 334 -137 559 -52 398 152 534 573 232 717 -70 34 -238 40 -341 12z
m249 -132 c55 -15 104 -62 112 -107 27 -167 -210 -367 -471 -397 -71 -8 -168
9 -214 36 -129 79 -9 289 235 409 130 65 246 85 338 59z"/>
<path d="M4041 3305 c-191 -54 -390 -243 -479 -456 -125 -302 -47 -590 177
-655 150 -44 333 40 477 220 211 263 269 644 124 809 -22 25 -60 55 -83 66
-58 28 -148 35 -216 16z m172 -155 c90 -71 81 -302 -20 -505 -104 -207 -254
-324 -407 -317 -41 3 -111 75 -126 132 -32 117 0 287 77 420 69 118 205 238
311 276 58 21 135 18 165 -6z"/>
<path d="M2857 2708 c-13 -18 -47 -65 -75 -105 -117 -160 -320 -323 -529 -424
-101 -49 -123 -68 -123 -107 0 -26 41 -62 71 -62 56 0 287 129 424 235 162
126 355 361 355 432 0 66 -82 86 -123 31z"/>
<path d="M1121 2659 c-117 -23 -249 -155 -302 -304 -25 -72 -31 -201 -10 -259
16 -46 72 -111 115 -133 18 -9 55 -16 86 -16 180 0 355 234 355 473 0 72 -4
93 -26 135 -43 85 -122 123 -218 104z m89 -158 c17 -32 12 -142 -10 -207 -36
-104 -128 -204 -190 -204 -44 0 -64 32 -68 110 -4 61 0 77 26 133 16 36 47 83
68 106 65 73 151 103 174 62z"/>
<path d="M2411 1590 c-68 -15 -164 -64 -206 -105 -139 -140 -79 -324 127 -386
59 -18 86 -21 171 -16 122 6 183 24 264 76 70 45 113 108 120 174 10 92 -72
188 -205 237 -65 25 -202 35 -271 20z m252 -166 c80 -41 96 -82 49 -127 -93
-89 -330 -101 -409 -22 -18 18 -33 40 -33 48 0 24 49 76 92 98 76 39 227 40
301 3z"/>
<path d="M3705 1515 c-195 -95 -428 -293 -668 -569 -42 -49 -80 -100 -83 -113
-9 -35 24 -77 63 -81 28 -3 42 10 156 136 223 248 418 412 590 498 62 31 90
52 97 69 17 46 -18 95 -67 95 -10 0 -49 -16 -88 -35z"/>
<path d="M1345 1285 c-37 -36 -31 -64 31 -151 166 -232 361 -425 501 -497 69
-36 127 -10 121 55 -3 29 -13 39 -93 93 -111 74 -256 217 -358 355 -135 183
-152 196 -202 145z"/>
</g>
</svg>
